<svg xmlns="http://www.w3.org/2000/svg" viewBox="0 0 31.45 55.41"><defs><style>.cls-1{fill:#1976d2;}</style></defs><title>fb_colour_icon</title><g id="Layer_2" data-name="Layer 2"><g id="Layer_1-2" data-name="Layer 1"><path class="cls-1" d="M19.43,55.41H10.55a2.69,2.69,0,0,1-2.69-2.69v-20H2.69A2.7,2.7,0,0,1,0,30V21.44a2.69,2.69,0,0,1,2.69-2.68H7.86v-4.3A14.64,14.64,0,0,1,11.73,4,14,14,0,0,1,22,0h6.77A2.69,2.69,0,0,1,31.45,2.7v8a2.69,2.69,0,0,1-2.69,2.69H24.21c-1.39,0-1.75.28-1.82.37s-.28.54-.28,1.64v3.4h6.31a2.67,2.67,0,0,1,2.71,2.68V30a2.7,2.7,0,0,1-2.69,2.69H22.11v20A2.68,2.68,0,0,1,19.43,55.41Zm-8.32-3.25h7.76V31.25a1.79,1.79,0,0,1,1.79-1.79h7.22V22H20.66a1.79,1.79,0,0,1-1.79-1.79V15.36A5.49,5.49,0,0,1,20,11.57a5.49,5.49,0,0,1,4.26-1.47h4V3.26H22c-6.72,0-10.89,4.3-10.89,11.21v5.75A1.79,1.79,0,0,1,9.32,22H3.25v7.46H9.32a1.79,1.79,0,0,1,1.79,1.79ZM28.76,3.26Z"/></g></g></svg>