<svg xmlns="http://www.w3.org/2000/svg" xmlns:xlink="http://www.w3.org/1999/xlink" viewBox="0 0 55.34 55.34"><defs><style>.cls-1{fill:url(#linear-gradient);}.cls-2{fill:url(#linear-gradient-2);}.cls-3{fill:url(#linear-gradient-3);}</style><linearGradient id="linear-gradient" x1="4.64" y1="-7658.34" x2="50.7" y2="-7612.29" gradientTransform="matrix(1, 0, 0, -1, 0, -7607.64)" gradientUnits="userSpaceOnUse"><stop offset="0" stop-color="#ffd600"/><stop offset="0.5" stop-color="#ff0100"/><stop offset="1" stop-color="#d800b9"/></linearGradient><linearGradient id="linear-gradient-2" x1="17.62" y1="-7645.36" x2="37.72" y2="-7625.27" gradientTransform="matrix(1, 0, 0, -1, 0, -7607.64)" gradientUnits="userSpaceOnUse"><stop offset="0" stop-color="#ff6400"/><stop offset="0.5" stop-color="#ff0100"/><stop offset="1" stop-color="#fd0056"/></linearGradient><linearGradient id="linear-gradient-3" x1="40.1" y1="-7622.89" x2="44.79" y2="-7618.19" gradientTransform="matrix(1, 0, 0, -1, 0, -7607.64)" gradientUnits="userSpaceOnUse"><stop offset="0" stop-color="#f30072"/><stop offset="1" stop-color="#e50097"/></linearGradient></defs><title>insta_colour_icon</title><g id="Layer_2" data-name="Layer 2"><g id="Layer_1-2" data-name="Layer 1"><path class="cls-1" d="M55.18,16.26a20.27,20.27,0,0,0-1.29-6.71A13.54,13.54,0,0,0,50.7,4.64a13.67,13.67,0,0,0-4.9-3.19A20.31,20.31,0,0,0,39.08.17C36.13,0,35.19,0,27.67,0S19.21,0,16.26.17A20.3,20.3,0,0,0,9.55,1.45a14.09,14.09,0,0,0-8.1,8.1A20.3,20.3,0,0,0,.17,16.26C0,19.21,0,20.16,0,27.67s0,8.46.17,11.41A20.31,20.31,0,0,0,1.45,45.8a13.65,13.65,0,0,0,3.2,4.9,13.41,13.41,0,0,0,4.9,3.19,20.27,20.27,0,0,0,6.71,1.29c3,.13,3.9.16,11.41.16s8.46,0,11.41-.16a20.28,20.28,0,0,0,6.72-1.29,14.14,14.14,0,0,0,8.09-8.09,20.28,20.28,0,0,0,1.29-6.72c.13-2.95.16-3.89.16-11.41S55.31,19.21,55.18,16.26Zm-5,22.59a15.38,15.38,0,0,1-1,5.14A9.16,9.16,0,0,1,44,49.25a15.73,15.73,0,0,1-5.14,1c-2.91.13-3.79.16-11.18.16s-8.26,0-11.18-.16a15.79,15.79,0,0,1-5.14-1,8.65,8.65,0,0,1-3.18-2.08A8.43,8.43,0,0,1,6.1,44a15.2,15.2,0,0,1-.95-5.14C5,35.94,5,35.06,5,27.67s0-8.26.16-11.18a15.25,15.25,0,0,1,.95-5.14A8.51,8.51,0,0,1,8.17,8.17,8.51,8.51,0,0,1,11.35,6.1a15.25,15.25,0,0,1,5.14-.95C19.41,5,20.28,5,27.67,5h0c7.39,0,8.27,0,11.18.16A15.2,15.2,0,0,1,44,6.1a8.51,8.51,0,0,1,3.18,2.07,8.51,8.51,0,0,1,2.07,3.18,15.44,15.44,0,0,1,1,5.14c.13,2.92.16,3.79.16,11.18S50.33,35.94,50.2,38.85Z"/><path class="cls-2" d="M27.67,13.46A14.21,14.21,0,1,0,41.88,27.67,14.21,14.21,0,0,0,27.67,13.46Zm0,23.44a9.23,9.23,0,1,1,9.23-9.23A9.22,9.22,0,0,1,27.67,36.9Z"/><path class="cls-3" d="M45.76,12.9a3.32,3.32,0,1,1-3.32-3.32A3.32,3.32,0,0,1,45.76,12.9Z"/></g></g></svg>