<svg xmlns="http://www.w3.org/2000/svg" viewBox="0 0 55.41 45.75"><defs><style>.cls-1{fill:#1976d2;}</style></defs><title>twitter_colour_icon</title><g id="Layer_2" data-name="Layer 2"><g id="Layer_1-2" data-name="Layer 1"><path class="cls-1" d="M21.08,45.75c-9.24,0-16.55-1.62-20-4.43L1,41.26.9,41.2a2.86,2.86,0,0,1-.75-3l0-.09A2.9,2.9,0,0,1,2.83,36.3a23.75,23.75,0,0,0,6.31-.87,12,12,0,0,1-6.31-7.3,2.57,2.57,0,0,1,.9-3,2.59,2.59,0,0,1,.79-.41A17.36,17.36,0,0,1,.93,18.29l0-.07v-.07a2.68,2.68,0,0,1,1.25-2.89,2.65,2.65,0,0,1,1.27-.36,14.05,14.05,0,0,1-1-3.12A13,13,0,0,1,3.79,3.1l.34-.69a1.93,1.93,0,0,1,3.07-.5l.63.63c4.94,5.19,9.37,7.65,17,9.33a13.62,13.62,0,0,1,3.67-7.82,12.86,12.86,0,0,1,9.18-4h0c2.54,0,5.68,1.45,7.59,2.47C47,1.94,48.92,1.11,51,.24a2.57,2.57,0,0,1,2.88.5,2.54,2.54,0,0,1,.55,2.79c-.15.41-.32.81-.5,1.21a2.73,2.73,0,0,1,.75.52,2.79,2.79,0,0,1,.69,2.6l0,.09A10.67,10.67,0,0,1,51,13.81C50.7,31.48,37.39,45.75,21.08,45.75ZM4.15,39.51c3.29,1.86,9.57,3,16.93,3a25.37,25.37,0,0,0,18.81-8.56,30.61,30.61,0,0,0,7.9-20.8v-.09a1.93,1.93,0,0,1,1-1.7,6.91,6.91,0,0,0,3-3.3A1.92,1.92,0,0,1,50,5a11.56,11.56,0,0,0,.73-1.14c-1.77.74-3.44,1.4-4.89,1.84a2.07,2.07,0,0,1-1.6-.17c-2.59-1.44-5-2.3-6.45-2.31A10.1,10.1,0,0,0,28,13.49a1.92,1.92,0,0,1-2.29,1.88C16.9,13.63,11.67,11,6.22,5.55a9.6,9.6,0,0,0-.63,5.61,11.86,11.86,0,0,0,2.82,5.46,1.92,1.92,0,0,1-1.94,3.11,8.42,8.42,0,0,1-1.78-.68,16.07,16.07,0,0,0,5.55,6.43A1.92,1.92,0,0,1,9,29a8.6,8.6,0,0,1-2.54-.55c1.37,2.8,3.58,4.35,7,4.94A1.9,1.9,0,0,1,15,35a1.93,1.93,0,0,1-1,2A23.17,23.17,0,0,1,4.15,39.51Z"/></g></g></svg>