<svg xmlns="http://www.w3.org/2000/svg" viewBox="0 0 55.45 48.68"><defs><style>.cls-1{fill:#19b2e5;}</style></defs><title>twitter_colour_icon_1</title><g id="Layer_2" data-name="Layer 2"><g id="Layer_1-2" data-name="Layer 1"><path class="cls-1" d="M30.46,28.88c-2.15-2.42-4.14-17.56-4.29-18.31C24.81,1.88,20.35.45,16.84.79,12.52,1.2,6.74,7.26.59,12.69A1.72,1.72,0,0,0,.36,15L2.81,18.2a1.72,1.72,0,0,0,2.36.37,32.77,32.77,0,0,1,3.25-2.12C13,18,13.11,48.68,25.09,48.68S64,14.82,52.76,2.78c-4.31-4.61-18.12-5-23,10.81a1.74,1.74,0,0,0,2.36,2.09A7.64,7.64,0,0,1,35.3,15c1.54,0,1.65.57,1.73,1C37.74,19.55,32.4,27.47,30.46,28.88ZM40.55,16.59A5,5,0,0,0,39.27,13a6,6,0,0,0-5-1.41c4.14-9.32,13.53-9.06,16-6.42,8.11,8.68-15.1,40.07-25.14,40.07C16.17,45.22,17,13,8.24,13c-.58,0-1.2.14-3.7,1.83l-.45-.58C7.61,11,14.26,4.52,17.17,4.25c5.62-.57,5.5,7.8,5.81,8.36,2.21,14.86,4.09,19.88,7.43,19.88,3.51,0,10.14-10.4,10.14-15.9Z"/></g></g></svg>