<svg xmlns="http://www.w3.org/2000/svg" viewBox="0 0 73.02 55.3"><defs><style>.cls-1{fill:#fff;}.cls-2{fill:red;}</style></defs><title>youtube_colour_icon</title><g id="Layer_2" data-name="Layer 2"><g id="Layer_1-2" data-name="Layer 1"><path class="cls-1" d="M47.75,24.39,31.62,15.56a3,3,0,0,0-4.39,2.6v17.5a2.94,2.94,0,0,0,1.44,2.54,3,3,0,0,0,1.52.43,3,3,0,0,0,1.41-.36l16.13-8.68a3,3,0,0,0,0-5.2ZM31.51,33.46V20.38L43.57,27Z"/><path class="cls-2" d="M72.48,13.05v0c-.07-.59-.68-5.82-3.22-8.47A11.87,11.87,0,0,0,61.39.86L61,.81H60.9C51.24.1,36.67,0,36.52,0h0C36.35,0,21.77.1,12,.8H11.9l-.34,0A11.62,11.62,0,0,0,3.74,4.66C1.32,7.29.62,12.4.55,13v.07C.52,13.3,0,19.12,0,25v5.47c0,5.84.52,11.66.54,11.91v0c.06.57.68,5.71,3.21,8.37a12.09,12.09,0,0,0,8.13,3.63l.73.1.17,0c5.57.53,23,.79,23.78.8h0c.15,0,14.72-.09,24.38-.8h.12l.41-.05a11.27,11.27,0,0,0,7.76-3.71C71.7,48.1,72.4,43,72.47,42.41v-.07c0-.25.54-6.07.54-11.91V25C73,19.12,72.5,13.3,72.48,13.05ZM68.74,30.43c0,5.41-.48,11-.52,11.49-.18,1.41-.92,4.65-2.1,5.93a7,7,0,0,1-5.05,2.34l-.45.05c-9.34.68-23.37.78-24,.78s-17.95-.27-23.35-.77c-.28,0-.58-.08-.89-.12a8,8,0,0,1-5.48-2.28l0-.05C5.7,46.6,5,43.57,4.8,41.94c0-.39-.52-6-.52-11.51V25c0-5.4.47-11,.52-11.49.21-1.66,1-4.7,2.09-5.93A7.39,7.39,0,0,1,12.05,5.1l.35,0c9.47-.68,23.6-.78,24.11-.78s14.63.1,24,.78l.37.05a7.62,7.62,0,0,1,5.24,2.37l0,0c1.16,1.21,1.88,4.29,2.06,5.95,0,.37.52,6,.52,11.51Z"/></g></g></svg>